<?xml version="1.0" standalone="no"?>
<!DOCTYPE svg PUBLIC "-//W3C//DTD SVG 20010904//EN"
 "http://www.w3.org/TR/2001/REC-SVG-20010904/DTD/svg10.dtd">
<svg version="1.0" xmlns="http://www.w3.org/2000/svg"
 width="925.000000pt" height="925.000000pt" viewBox="0 0 925.000000 925.000000"
 preserveAspectRatio="xMidYMid meet">
<metadata>
Created by potrace 1.11, written by Peter Selinger 2001-2013
</metadata>
<g transform="translate(0.000000,925.000000) scale(0.100000,-0.100000)"
fill="#000000" stroke="none">
<path d="M4379 9246 c-2 -2 -49 -6 -104 -10 -145 -10 -447 -48 -484 -62 -8 -2
-30 -7 -50 -10 -51 -8 -287 -63 -341 -79 -288 -87 -493 -161 -667 -241 -123
-56 -335 -164 -364 -185 -15 -10 -30 -19 -33 -19 -26 0 -467 -297 -542 -365
-7 -5 -24 -19 -40 -30 -162 -115 -514 -463 -685 -675 -27 -34 -56 -69 -64 -77
-8 -8 -15 -18 -15 -21 0 -4 -10 -18 -23 -32 -55 -59 -251 -354 -337 -505 -11
-19 -30 -52 -41 -72 -166 -292 -326 -696 -418 -1053 -39 -151 -47 -183 -57
-245 -3 -16 -9 -46 -14 -65 -8 -31 -39 -236 -55 -360 -27 -218 -28 -771 0
-975 2 -16 6 -55 10 -85 19 -187 97 -557 160 -760 15 -47 28 -92 30 -100 9
-40 127 -347 167 -435 49 -110 150 -317 158 -325 3 -3 14 -23 25 -45 11 -22
23 -41 28 -43 4 -2 7 -8 7 -12 0 -26 234 -381 341 -519 156 -198 221 -273 394
-446 155 -154 192 -189 328 -302 50 -42 93 -80 95 -85 2 -4 8 -8 13 -8 9 0
109 -71 136 -97 7 -6 28 -21 48 -33 19 -12 32 -27 29 -32 -4 -7 -2 -8 4 -4 11
6 164 -87 170 -105 2 -5 7 -7 12 -4 4 3 13 -2 20 -10 7 -8 17 -15 22 -15 5 0
29 -14 54 -30 24 -17 44 -27 44 -23 0 4 4 3 8 -3 8 -12 7 -12 189 -103 70 -36
130 -67 133 -70 3 -3 11 -7 19 -9 8 -2 41 -16 75 -31 34 -15 88 -38 121 -51
33 -13 63 -28 66 -33 3 -5 9 -8 13 -7 5 2 26 -3 56 -14 3 -1 23 -8 45 -15 22
-8 45 -16 50 -20 6 -3 19 -7 30 -8 10 -2 22 -7 25 -11 3 -4 16 -8 30 -10 13
-1 27 -6 30 -11 3 -4 13 -7 23 -5 9 1 17 -2 17 -7 0 -6 4 -8 10 -4 5 3 25 -1
45 -9 19 -8 38 -15 40 -16 3 0 6 0 8 -1 1 0 10 -2 20 -4 37 -7 48 -15 41 -27
-6 -10 -4 -10 8 0 16 13 72 7 64 -7 -2 -3 8 -7 22 -7 15 -1 38 -4 52 -7 92
-17 99 -20 93 -31 -4 -6 0 -5 9 2 9 7 19 9 22 4 3 -5 16 -9 28 -8 13 1 33 -1
46 -6 13 -4 47 -11 75 -14 29 -4 54 -9 57 -13 3 -4 19 -7 35 -7 58 -1 100 -9
107 -19 5 -6 8 -5 8 3 0 7 5 10 11 6 6 -3 36 -8 67 -11 31 -2 63 -9 71 -16 12
-10 13 -9 6 2 -6 11 -3 13 16 7 30 -9 182 -14 409 -15 213 0 297 4 485 24 110
12 141 16 165 21 14 2 42 7 63 10 21 3 44 7 50 8 7 2 35 6 62 10 28 4 61 11
75 16 14 5 43 12 65 15 22 3 47 7 55 10 8 2 26 6 40 9 14 3 43 10 65 16 22 6
51 13 65 16 40 9 44 10 70 21 14 6 41 14 60 19 44 10 42 9 60 17 46 20 164 56
170 52 5 -3 10 0 12 5 2 6 10 12 18 14 16 3 24 6 114 43 32 13 61 22 64 19 3
-3 10 0 16 7 6 8 31 22 56 32 25 10 88 39 140 64 52 25 98 46 102 46 4 0 13 6
19 12 7 7 17 13 22 13 5 0 36 16 69 35 33 20 66 37 72 38 6 1 13 4 16 7 21 23
162 100 172 94 7 -4 10 -4 6 1 -8 8 15 35 30 35 5 0 15 7 22 15 7 9 19 14 27
11 8 -3 12 -2 8 3 -3 5 16 23 42 40 110 70 319 230 385 293 10 10 20 18 22 18
9 0 95 81 255 241 172 171 219 223 335 368 37 47 75 95 85 106 9 11 36 50 60
85 25 36 47 67 51 70 5 5 74 108 95 142 5 9 25 43 44 75 19 32 38 60 43 61 4
2 8 8 8 14 0 5 17 40 39 76 101 176 210 408 293 627 27 72 50 135 52 140 1 6
19 62 39 125 30 95 79 275 92 340 19 93 55 283 59 310 3 19 10 67 15 105 29
200 36 317 36 620 0 149 -4 306 -8 350 -5 44 -10 101 -12 127 -3 26 -7 60 -9
75 -3 16 -7 51 -11 78 -3 28 -13 88 -21 135 -9 47 -18 96 -20 110 -2 14 -7 36
-10 50 -3 14 -8 36 -10 49 -10 52 -84 330 -104 391 -12 36 -23 72 -25 80 -2 8
-4 16 -5 18 -2 1 -3 5 -5 10 -1 4 -4 14 -8 22 -3 8 -12 35 -20 60 -44 132
-195 472 -275 615 -54 97 -166 284 -206 345 -53 82 -166 242 -176 250 -3 3
-19 23 -35 45 -17 22 -32 42 -35 45 -3 3 -23 28 -45 55 -128 160 -351 391
-516 535 -46 39 -95 82 -109 94 -109 96 -456 339 -590 414 -36 20 -67 38 -70
41 -14 16 -283 151 -395 199 -55 23 -113 49 -128 57 -16 8 -33 15 -38 15 -5 0
-28 9 -52 19 -125 57 -539 180 -727 215 -111 21 -139 26 -170 31 -19 3 -46 7
-60 10 -14 2 -43 7 -65 10 -23 3 -50 7 -62 9 -12 3 -58 7 -103 11 -45 4 -92 9
-103 12 -25 5 -612 14 -618 9z m399 -466 c1 0 30 -1 65 -2 34 0 67 -4 74 -10
7 -5 14 -5 17 1 4 6 12 8 19 6 7 -3 32 -7 57 -9 25 -2 45 -5 45 -6 0 -1 27 -3
60 -5 33 -1 60 -4 60 -5 0 -1 16 -3 35 -6 19 -2 47 -6 63 -9 15 -3 42 -7 60
-10 17 -3 43 -8 57 -12 27 -6 41 -9 78 -11 13 -1 20 -6 17 -12 -3 -6 1 -7 10
-4 19 8 165 -26 165 -38 0 -5 4 -7 9 -4 15 10 71 -6 64 -17 -3 -6 -1 -7 5 -3
13 8 162 -34 162 -45 0 -4 9 -5 20 -2 12 3 20 0 20 -8 0 -7 3 -10 6 -6 7 6
144 -40 159 -54 5 -5 19 -9 32 -9 12 0 27 -8 32 -17 8 -14 10 -15 11 -3 0 12
2 12 9 2 4 -8 11 -13 15 -12 6 1 32 -10 114 -47 20 -10 39 -18 42 -18 23 -6
39 -19 33 -28 -4 -6 -1 -7 6 -3 14 9 183 -74 309 -151 29 -18 55 -33 57 -33 7
0 88 -52 95 -61 3 -3 10 -8 16 -10 30 -10 193 -126 193 -137 1 -6 5 -11 9 -10
8 3 134 -91 192 -142 14 -12 46 -39 71 -61 79 -67 98 -87 91 -95 -4 -4 -2 -4
4 -1 17 10 215 -194 405 -417 14 -17 67 -87 118 -156 50 -69 96 -130 101 -137
6 -7 10 -14 10 -16 0 -2 22 -37 48 -78 98 -149 209 -357 301 -561 23 -52 44
-100 46 -108 0 -3 16 -43 34 -90 66 -168 156 -475 186 -635 33 -178 42 -235
50 -315 4 -36 8 -78 11 -95 23 -182 23 -719 -1 -843 -1 -10 -6 -49 -10 -87 -3
-38 -8 -72 -10 -75 -1 -3 -6 -34 -9 -69 -4 -35 -8 -67 -10 -70 -2 -3 -7 -23
-10 -43 -3 -21 -11 -59 -17 -85 -6 -27 -13 -60 -15 -74 -3 -14 -18 -75 -35
-135 -16 -60 -32 -117 -34 -126 -14 -64 -111 -326 -176 -478 -75 -174 -313
-607 -341 -618 -4 -2 -8 -10 -8 -17 0 -7 -3 -15 -7 -17 -5 -1 -28 -32 -53 -68
-73 -107 -209 -279 -309 -389 -103 -114 -323 -327 -396 -382 -16 -13 -32 -26
-35 -30 -3 -3 -39 -33 -80 -65 -238 -188 -484 -342 -735 -464 -138 -67 -256
-121 -270 -125 -5 -1 -19 -6 -30 -10 -142 -58 -385 -137 -486 -160 -9 -2 -34
-8 -55 -14 -33 -9 -41 -8 -51 6 -7 9 -13 26 -13 37 0 12 -7 43 -15 71 -9 27
-13 55 -11 62 3 6 1 13 -4 15 -4 2 -10 17 -13 33 -3 17 -26 113 -52 215 -46
181 -54 214 -58 255 -1 11 -5 22 -8 25 -3 3 -19 59 -34 125 -35 147 -37 155
-39 180 0 11 -4 22 -7 25 -3 3 -26 95 -52 205 -26 110 -52 214 -57 230 -5 17
-12 44 -15 60 -7 33 -12 57 -15 65 -1 3 -2 9 -1 13 1 4 -3 16 -8 25 -5 9 -11
31 -14 47 -3 17 -28 124 -56 239 -29 115 -49 216 -46 223 2 8 1 12 -3 9 -7 -4
-68 221 -88 324 -3 14 -10 43 -16 65 -5 22 -12 49 -15 60 -2 11 -7 31 -10 45
-3 14 -7 32 -8 40 -1 8 -7 26 -12 40 -7 16 -7 26 -1 29 6 2 6 6 -1 10 -6 4
-13 16 -16 27 -11 49 -35 155 -49 210 -8 34 -17 72 -20 85 -3 13 -12 51 -21
84 -8 33 -17 71 -20 85 -8 33 -10 41 -18 65 -3 11 -8 31 -11 45 -3 14 -12 52
-20 85 -8 33 -12 63 -10 66 2 4 0 9 -5 11 -6 1 -12 19 -14 38 -2 19 -7 42 -10
50 -8 26 -29 104 -33 125 -1 11 -12 58 -24 105 -12 47 -25 103 -30 125 -5 22
-14 55 -19 74 -6 19 -8 37 -6 42 3 4 1 10 -4 13 -4 3 -12 25 -16 48 -4 24 -9
48 -10 53 -4 14 -44 170 -62 239 -8 32 -17 69 -19 81 -2 11 -21 93 -43 181
-22 87 -42 170 -44 184 -3 14 -8 32 -11 40 -3 8 -13 47 -22 85 -16 72 -27 121
-39 165 -3 14 -8 34 -10 45 -3 11 -28 112 -56 225 -28 113 -53 214 -55 225 -2
11 -15 66 -29 123 -15 56 -23 107 -19 114 4 6 3 8 -3 5 -7 -4 -14 8 -17 31 -4
20 -25 109 -47 197 -22 88 -43 171 -45 185 -3 14 -23 96 -45 183 -22 87 -37
162 -34 168 4 5 1 9 -6 9 -7 0 -9 3 -6 6 3 4 2 14 -2 23 -5 9 -11 30 -14 46
-3 17 -9 41 -13 55 -3 14 -7 35 -8 48 0 12 -4 22 -8 22 -5 0 -7 3 -6 8 1 6
-18 100 -28 137 -14 49 -64 257 -69 284 -3 19 -8 38 -11 43 -3 4 -7 16 -9 25
-2 10 -17 76 -35 147 -17 71 -28 136 -26 143 3 8 2 12 -3 9 -9 -6 -54 171 -46
184 3 5 1 10 -4 12 -6 1 -12 14 -15 28 -2 14 -9 45 -15 70 -5 24 -9 46 -7 47
7 8 208 50 233 49 17 -1 29 2 26 7 -2 4 6 8 19 8 13 1 32 3 43 5 103 16 149
23 154 22 3 0 8 1 11 2 21 8 108 15 295 26 55 3 101 7 102 8 2 2 287 -2 291
-4z m-1549 -292 c-11 -35 -22 -70 -24 -78 -2 -8 -9 -28 -15 -45 -6 -16 -13
-37 -15 -45 -17 -69 -94 -278 -100 -272 -5 4 -5 2 -2 -4 6 -11 -39 -163 -53
-178 -5 -5 -6 -15 -3 -22 3 -8 1 -14 -4 -14 -5 0 -10 -6 -10 -13 0 -17 -54
-191 -62 -197 -3 -3 -7 -16 -9 -30 -1 -14 -7 -27 -12 -28 -6 -2 -8 -7 -5 -12
4 -7 -12 -65 -32 -110 -3 -8 -5 -18 -5 -22 1 -5 -1 -8 -6 -8 -4 0 -8 -14 -9
-30 -1 -17 -9 -45 -17 -63 -14 -30 -90 -264 -91 -279 0 -3 -3 -10 -7 -14 -5
-4 -8 -15 -8 -25 0 -10 -6 -24 -12 -31 -7 -7 -14 -22 -15 -33 -2 -29 -8 -48
-20 -70 -6 -11 -11 -23 -11 -28 -1 -18 -15 -73 -21 -82 -4 -5 -13 -30 -20 -55
-8 -25 -20 -63 -28 -85 -8 -22 -17 -48 -19 -58 -7 -39 -16 -57 -24 -52 -5 3
-12 0 -16 -6 -4 -8 -3 -9 4 -5 18 11 15 -7 -22 -114 -19 -55 -32 -100 -30
-100 3 0 0 -9 -6 -21 -6 -11 -13 -28 -15 -37 -3 -9 -25 -78 -50 -152 -25 -74
-48 -142 -50 -151 -2 -8 -10 -32 -19 -52 -8 -20 -13 -37 -10 -37 3 0 2 -6 -3
-12 -4 -7 -8 -15 -9 -18 -6 -34 -18 -59 -25 -54 -5 3 -6 -1 -3 -9 3 -8 -9 -59
-27 -113 -18 -55 -32 -103 -31 -107 1 -4 -4 -10 -12 -13 -8 -3 -13 -11 -10
-18 3 -8 -4 -40 -16 -72 -12 -33 -23 -67 -25 -77 -2 -9 -7 -23 -12 -30 -4 -6
-8 -17 -9 -23 -4 -29 -50 -160 -57 -165 -5 -3 -8 -9 -7 -13 3 -11 -24 -106
-30 -106 -3 0 -7 -8 -8 -17 -2 -22 -7 -43 -15 -63 -3 -8 -27 -80 -53 -160 -26
-80 -52 -147 -56 -148 -4 -2 -6 -7 -3 -12 3 -4 -5 -34 -16 -66 -11 -33 -22
-63 -23 -69 -5 -23 -18 -61 -26 -80 -5 -11 -14 -39 -20 -63 -7 -28 -15 -40
-23 -36 -9 5 -9 4 -1 -5 11 -12 -2 -70 -19 -87 -4 -4 -7 -13 -7 -20 0 -7 -5
-25 -12 -41 -13 -32 -12 -28 -22 -71 -4 -19 -12 -29 -18 -26 -7 4 -8 2 -4 -5
4 -6 2 -28 -5 -49 -7 -20 -11 -37 -9 -37 2 0 -3 -11 -10 -25 -8 -14 -15 -30
-16 -37 -3 -17 -33 -113 -44 -138 -7 -16 -112 -338 -116 -355 0 -3 -3 -12 -7
-20 -12 -31 -51 -155 -52 -165 -1 -5 -7 -9 -15 -7 -12 3 -12 1 -3 -8 9 -9 7
-23 -7 -56 -11 -24 -17 -44 -14 -44 3 0 2 -6 -3 -12 -4 -7 -8 -15 -9 -18 -1
-3 -5 -20 -9 -38 -4 -18 -12 -35 -16 -38 -5 -3 -9 -15 -9 -28 0 -12 -3 -26 -8
-30 -4 -4 -7 -11 -7 -14 -1 -9 -72 -234 -92 -289 -9 -26 -20 -40 -27 -36 -8 4
-8 3 0 -6 7 -8 4 -29 -11 -74 -11 -34 -23 -66 -26 -72 -4 -5 -9 -22 -13 -37
-3 -15 -11 -39 -16 -54 -11 -27 -11 -26 -65 55 -31 45 -64 99 -76 119 -11 20
-38 69 -60 107 -69 121 -214 427 -244 515 -1 3 -6 16 -12 30 -26 61 -104 305
-132 410 -48 180 -86 376 -106 555 -3 22 -7 56 -9 75 -25 196 -26 695 -1 865
2 17 9 71 15 120 17 141 24 178 75 415 2 8 11 42 20 75 9 33 18 65 19 70 40
152 126 395 196 550 51 115 161 335 170 340 6 4 8 11 5 16 -4 5 -2 9 2 9 5 0
20 22 34 50 13 27 27 50 32 50 4 0 7 6 7 13 0 10 38 73 67 112 5 6 30 44 58
85 27 41 52 77 55 80 3 3 39 50 80 105 41 55 82 107 90 115 8 9 37 43 65 76
92 111 404 415 492 481 21 15 40 30 43 33 9 10 66 55 94 75 16 11 33 25 40 30
29 27 206 146 206 138 0 -4 4 -3 8 3 14 21 85 63 96 57 6 -3 8 -3 4 2 -10 11
50 47 64 39 6 -4 8 -3 5 3 -6 9 9 21 33 28 3 0 32 16 65 35 33 19 63 34 68 32
4 -1 7 2 7 7 0 9 48 26 63 22 5 -1 6 3 3 7 -5 9 81 48 97 44 4 -1 7 2 7 6 0
14 128 65 141 56 7 -4 9 -3 6 3 -6 10 109 61 126 55 4 -1 7 3 7 9 0 6 7 9 15
5 8 -3 15 -1 15 4 0 7 15 14 42 19 3 0 -3 -27 -13 -61z m245 -1198 c21 -85 39
-162 41 -170 1 -8 12 -54 24 -102 11 -48 23 -98 25 -110 2 -13 16 -70 30 -128
14 -58 36 -152 50 -210 13 -58 54 -231 91 -385 36 -154 82 -347 101 -430 20
-82 53 -224 75 -315 21 -91 48 -205 60 -255 11 -49 34 -144 49 -210 36 -150
96 -406 195 -825 42 -179 89 -379 105 -445 15 -66 45 -190 65 -275 20 -85 48
-202 61 -259 14 -57 27 -111 29 -120 7 -34 27 -120 46 -201 12 -47 22 -92 24
-100 2 -8 20 -85 40 -170 38 -157 124 -523 130 -550 2 -8 44 -188 94 -400 50
-212 93 -394 96 -405 2 -11 25 -108 50 -215 26 -107 48 -202 50 -210 2 -8 17
-71 34 -140 16 -68 28 -127 25 -129 -27 -27 -735 -33 -870 -7 -12 2 -47 7 -80
10 -214 23 -543 96 -779 174 -347 115 -710 291 -1000 485 -87 59 -307 221
-336 249 -8 7 -30 26 -49 42 -117 96 -400 373 -400 391 0 2 29 90 64 197 35
106 141 429 236 718 95 289 210 638 255 775 45 138 155 473 245 745 89 272
178 540 197 595 19 55 36 107 38 116 3 16 140 432 287 874 44 132 81 245 82
250 3 13 275 845 283 865 4 8 7 17 8 20 4 18 77 238 82 250 3 8 7 20 8 25 2 6
20 62 41 125 l38 115 11 -50 c7 -27 29 -120 49 -205z"/>
</g>
</svg>
